<?xml version="1.0" encoding="UTF-8"?>
<svg width="25px" height="25px" viewBox="0 0 25 25" version="1.1" xmlns="http://www.w3.org/2000/svg" xmlns:xlink="http://www.w3.org/1999/xlink">
    <!-- Generator: Sketch 46.2 (44496) - http://www.bohemiancoding.com/sketch -->
    <title>icon / cart / default</title>
    <desc>Created with Sketch.</desc>
    <defs></defs>
    <g id="01.-Home" stroke="none" stroke-width="1" fill="none" fill-rule="evenodd">
        <g id="Home-/-Wide" transform="translate(-1176.000000, -25.000000)">
            <g id="Header-/-Wide">
                <g id="Cart" transform="translate(1176.000000, 25.000000)">
                    <rect id="Bound" fill-opacity="0.5" fill="#4A90E2" opacity="0" x="0" y="0" width="25" height="25"></rect>
                    <path d="M24.4067287,9.29505505 L22.5593079,17.6638036 L6.62941967,17.6638036 L4.11397282,3.3 L0,3.3 L0,2 L5.20609554,2 L6.08669518,7.02843473 L24.4067287,9.29505505 Z M7.72154239,16.3638036 L21.5149872,16.3638036 L22.8293457,10.4098077 L6.32117265,8.36735723 L7.72154239,16.3638036 Z M8.5,22.65 C7.67157288,22.65 7,21.9784271 7,21.15 C7,20.3215729 7.67157288,19.65 8.5,19.65 C9.32842712,19.65 10,20.3215729 10,21.15 C10,21.9784271 9.32842712,22.65 8.5,22.65 Z M19.5,22.65 C18.6715729,22.65 18,21.9784271 18,21.15 C18,20.3215729 18.6715729,19.65 19.5,19.65 C20.3284271,19.65 21,20.3215729 21,21.15 C21,21.9784271 20.3284271,22.65 19.5,22.65 Z" id="icon-cart" fill="#595B60" fill-rule="nonzero"></path>
                </g>
            </g>
        </g>
    </g>
</svg>