<?xml version="1.0" encoding="UTF-8"?>
<svg width="162px" height="25px" viewBox="0 0 162 25" version="1.1" xmlns="http://www.w3.org/2000/svg" xmlns:xlink="http://www.w3.org/1999/xlink">
    <!-- Generator: Sketch 46.2 (44496) - http://www.bohemiancoding.com/sketch -->
    <title>logo</title>
    <desc>Created with Sketch.</desc>
    <defs></defs>
    <g id="01.-Home" stroke="none" stroke-width="1" fill="none" fill-rule="evenodd">
        <g id="Nav-/-Narrow" transform="translate(-107.000000, -25.000000)">
            <g id="Header-/-Narrow">
                <rect id="Background" fill="#FFFFFF" x="0" y="0" width="375" height="75"></rect>
                <g id="Logo-/-Emblem" transform="translate(107.000000, 25.000000)" fill="#595B60">
                    <path d="M0,25 L0,0 L162,0 L162,25 L0,25 Z M1.31150618,23.6933966 L160.688494,23.6933966 L160.688494,1.30660344 L1.31150618,1.30660344 L1.31150618,23.6933966 Z M6.51869718,7.95227273 L8.10848088,7.95227273 L8.10848088,11.7234848 L12.4867975,11.7234848 L12.4867975,7.95227273 L14.0765812,7.95227273 L14.0765812,17.0237374 L12.4867975,17.0237374 L12.4867975,13.2007576 L8.10848088,13.2007576 L8.10848088,17.0237374 L6.51869718,17.0237374 L6.51869718,7.95227273 Z M23.3368364,17.1794444 C22.6332282,17.1794444 21.9903066,17.0562121 21.4083254,16.81 C20.8263442,16.5637879 20.3268865,16.2289394 19.9096984,15.8057071 C19.4927643,15.3824747 19.1669868,14.8877778 18.9323661,14.3218687 C18.6977455,13.7557071 18.580689,13.1534343 18.580689,12.5137879 L18.580689,12.4880303 C18.580689,11.8486364 18.6977455,11.2461111 18.9323661,10.680202 C19.1669868,10.1142929 19.4970809,9.61757576 19.9229022,9.18979798 C20.3484696,8.76227273 20.8522439,8.42313131 21.434479,8.17262626 C22.0164602,7.92186869 22.6593818,7.79661616 23.36299,7.79661616 C24.0665981,7.79661616 24.7095197,7.91984848 25.2915009,8.16606061 C25.8735329,8.41227273 26.3732445,8.74712121 26.7901787,9.17035354 C27.2071129,9.59383838 27.5328903,10.0882828 27.767511,10.6541919 C28.0021317,11.220101 28.1191881,11.8228788 28.1191881,12.4620202 L28.1191881,12.4880303 C28.1191881,13.1274242 28.0021317,13.7299495 27.767511,14.2958586 C27.5328903,14.8617677 27.2027962,15.3584848 26.7772288,15.7860101 C26.3516614,16.2140404 25.8476332,16.5531818 25.2656013,16.8034343 C24.6833661,17.0539394 24.0404445,17.1794444 23.3368364,17.1794444 Z M23.36299,15.714798 C23.8126796,15.714798 24.2252972,15.6307071 24.6031279,15.4622727 C24.9789273,15.2938384 25.3001342,15.064798 25.5695925,14.7751515 C25.8367147,14.4860101 26.0474671,14.1468687 26.197279,13.7579798 C26.3493762,13.3693434 26.4252978,12.954697 26.4252978,12.5137879 L26.4252978,12.4880303 C26.4252978,12.0473737 26.3493762,11.6304545 26.197279,11.2375253 C26.0474671,10.8443434 25.8344295,10.5031818 25.5629906,10.2137879 C25.2894696,9.92439394 24.9636922,9.69308081 24.5835762,9.52035354 C24.2011749,9.34737374 23.786526,9.26126263 23.3368364,9.26126263 C22.8874006,9.26126263 22.4745292,9.34535354 22.0966984,9.5140404 C21.721153,9.68247475 21.3996922,9.91126263 21.1305386,10.2006566 C20.8631624,10.4900505 20.65241,10.8291919 20.5025981,11.2180808 C20.3507549,11.6067172 20.2745793,12.0213636 20.2745793,12.4620202 L20.2745793,12.4880303 C20.2745793,12.9286869 20.3507549,13.3453535 20.5025981,13.7385354 C20.65241,14.1317172 20.8654476,14.4728788 21.1368865,14.7625253 C21.4106107,15.0516667 21.7363881,15.2829798 22.1162502,15.4557071 C22.4986514,15.6284343 22.9135542,15.714798 23.36299,15.714798 Z M32.6231944,7.95227273 L34.1065862,7.95227273 L38.9820752,14.2244949 L38.9820752,7.95227273 L40.5721129,7.95227273 L40.5721129,17.0237374 L39.231931,17.0237374 L34.2129781,10.5699495 L34.2129781,17.0237374 L32.6231944,17.0237374 L32.6231944,7.95227273 Z M45.4801034,7.95227273 L52.2300188,7.95227273 L52.2300188,9.39065657 L47.0698871,9.39065657 L47.0698871,11.7234848 L51.643721,11.7234848 L51.643721,13.1618687 L47.0698871,13.1618687 L47.0698871,15.5853535 L52.2952759,15.5853535 L52.2952759,17.0237374 L45.4801034,17.0237374 L45.4801034,7.95227273 Z M59.4575549,13.4470455 L55.8348997,7.95234848 L57.7243072,7.95234848 L60.2784734,11.9695202 L62.8585392,7.95234848 L64.6958934,7.95234848 L61.0732382,13.4081566 L61.0732382,17.0238131 L59.4575549,17.0238131 L59.4575549,13.4470455 Z M74.7461008,14.4127256 C74.4300417,14.7050794 74.0861307,14.9364662 73.7141255,15.106886 C73.3421204,15.2770657 72.9316068,15.3622756 72.4823428,15.3622756 C72.1381896,15.3622756 71.8209195,15.3135499 71.5293217,15.2163387 C71.2382083,15.1188874 70.9856032,14.9779911 70.7715065,14.7936497 C70.5574098,14.6093083 70.3888449,14.3882427 70.265812,14.1309329 C70.1430212,13.8736231 70.0815047,13.5882301 70.0815047,13.2754738 L70.0815047,13.2543514 C70.0815047,12.7812566 70.2166472,12.3763297 70.4871744,12.0386106 C70.7572172,11.7013715 71.145207,11.4248595 71.6504171,11.2093145 C71.4399533,10.9450439 71.2854355,10.6910945 71.1873482,10.4474662 C71.0887765,10.203838 71.0396118,9.95012862 71.0396118,9.68585801 L71.0396118,9.66497559 C71.0396118,9.42134737 71.0887765,9.18828037 71.1873482,8.9657746 C71.2854355,8.74326882 71.4259062,8.54812621 71.6082759,8.38130689 C71.7908879,8.21448757 72.0120081,8.08055205 72.2716367,7.97974037 C72.5315075,7.8789287 72.8262538,7.82828283 73.1561178,7.82828283 C73.4508641,7.82828283 73.7175162,7.87364808 73.9563164,7.96413857 C74.1948744,8.05462905 74.4004945,8.17968353 74.5722078,8.33978208 C74.7444055,8.4996406 74.8776105,8.68734234 74.9725493,8.90288731 C75.0672459,9.11891233 75.1144731,9.34837892 75.1144731,9.59200714 L75.1144731,9.61264953 C75.1144731,10.0927051 74.9672211,10.4841905 74.6722326,10.7868656 C74.3774863,11.0890606 73.9844105,11.3310086 73.4930053,11.5119895 L74.756515,12.784857 C74.8969857,12.5762728 75.0338236,12.353527 75.1670286,12.1170996 C75.3007179,11.8804322 75.4268994,11.6336836 75.5462995,11.3763738 L76.5254771,11.8876331 C76.3779829,12.1797469 76.2217698,12.4668202 76.0568378,12.7481327 C75.8919058,13.0299254 75.7146221,13.2994766 75.5249867,13.5572665 L76.6833856,14.7259619 L75.7252785,15.4040404 L74.7461008,14.4127256 Z M72.8085739,10.8233498 C73.1876026,10.6841337 73.4753253,10.5259553 73.6719843,10.3483348 C73.8686433,10.1711942 73.9669728,9.95012862 73.9669728,9.68585801 L73.9669728,9.66497559 C73.9669728,9.42134737 73.8877764,9.2230844 73.7301101,9.06994666 C73.5719595,8.91704895 73.3702145,8.84072011 73.124633,8.84072011 C72.8577386,8.84072011 72.6455794,8.92232956 72.4874288,9.0857885 C72.3295203,9.24924743 72.2505661,9.45975182 72.2505661,9.71706162 L72.2505661,9.73794404 C72.2505661,9.91868498 72.2927073,10.0893447 72.3767476,10.2492033 C72.4612722,10.4093018 72.6051335,10.600604 72.8085739,10.8233498 Z M72.6189384,14.2977523 C72.8717857,14.2977523 73.1139766,14.2423058 73.3457532,14.1309329 C73.5772877,14.0198001 73.798408,13.8633019 74.009114,13.6616786 L72.3665755,12.0021263 C72.0224223,12.1485433 71.7732079,12.327604 71.6189323,12.5397886 C71.4644146,12.7519732 71.3873979,12.9763992 71.3873979,13.2128266 L71.3873979,13.233469 C71.3873979,13.5469453 71.5031651,13.8023349 71.7344574,14.0003578 C71.966234,14.1988608 72.2609803,14.2977523 72.6189384,14.2977523 Z M69.8047335,17.0244948 L69.8047335,16.0143937 L76.619906,16.0143937 L76.619906,17.0244948 L69.8047335,17.0244948 Z M88.5510282,17.1794444 C87.881953,17.1794444 87.2654389,17.0584848 86.7004702,16.8163131 C86.1357555,16.5743939 85.645185,16.2440909 85.2302821,15.8251515 C84.8153793,15.4062121 84.4896019,14.9115152 84.2529498,14.3413131 C84.0162978,13.7711111 83.8989875,13.1620202 83.8989875,12.5137879 L83.8989875,12.4880303 C83.8989875,11.8400505 84.0140125,11.2332323 84.246348,10.6670707 C84.4786834,10.1014141 84.8044608,9.60444444 85.2236803,9.17691919 C85.6428997,8.74914141 86.140326,8.41227273 86.713674,8.16606061 C87.286768,7.91984848 87.9213103,7.79661616 88.6160313,7.79661616 C89.0329655,7.79661616 89.4133354,7.83121212 89.7563793,7.90040404 C90.0996771,7.96959596 90.4142821,8.06681818 90.70121,8.19207071 C90.987884,8.31732323 91.252721,8.46631313 91.4959749,8.6390404 C91.7392288,8.81176768 91.9695329,9.00191919 92.1863793,9.20924242 L91.1572476,10.3885354 C90.7921129,10.0516667 90.4056489,9.77944444 89.997348,9.57212121 C89.589047,9.36479798 89.1243762,9.26126263 88.6030815,9.26126263 C88.168627,9.26126263 87.7669279,9.34535354 87.3977304,9.5140404 C87.0285329,9.68247475 86.7091034,9.91126263 86.4399498,10.2006566 C86.1705423,10.4900505 85.9623292,10.8291919 85.8145486,11.2180808 C85.666768,11.6067172 85.5931317,12.0213636 85.5931317,12.4620202 L85.5931317,12.4880303 C85.5931317,12.9286869 85.666768,13.3453535 85.8145486,13.7385354 C85.9623292,14.1317172 86.1705423,14.4751515 86.4399498,14.7688384 C86.7091034,15.0625253 87.0285329,15.2938384 87.3977304,15.4622727 C87.7669279,15.6307071 88.168627,15.714798 88.6030815,15.714798 C89.159163,15.714798 89.6367837,15.6089899 90.0367053,15.3973737 C90.4361191,15.1855051 90.8312163,14.8986364 91.2225047,14.5355051 L92.2516364,15.5723737 C92.0170157,15.8228788 91.7719843,16.0453535 91.5155266,16.239798 C91.2593229,16.4342424 90.9833135,16.6026768 90.6880063,16.745101 C90.3926991,16.8877778 90.0692069,16.9956061 89.7172759,17.0690909 C89.3653448,17.1425758 88.9765956,17.1794444 88.5510282,17.1794444 Z M96.4819185,7.95227273 L98.0717022,7.95227273 L98.0717022,11.7234848 L102.450273,11.7234848 L102.450273,7.95227273 L104.040056,7.95227273 L104.040056,17.0237374 L102.450273,17.0237374 L102.450273,13.2007576 L98.0717022,13.2007576 L98.0717022,17.0237374 L96.4819185,17.0237374 L96.4819185,7.95227273 Z M108.948047,7.95227273 L113.013536,7.95227273 C113.587138,7.95227273 114.095229,8.03207071 114.538317,8.19191919 C114.981404,8.35176768 115.350602,8.57424242 115.645909,8.85934343 C115.889163,9.10984848 116.075793,9.39924242 116.206053,9.72777778 C116.336567,10.0560606 116.401571,10.4189394 116.401571,10.8161616 L116.401571,10.8421717 C116.401571,11.2136364 116.347486,11.5484848 116.238809,11.8464646 C116.130132,12.144697 115.98032,12.4080808 115.789119,12.6371212 C115.597918,12.8659091 115.3699,13.0603535 115.105063,13.220202 C114.839972,13.3800505 114.54695,13.5032828 114.225489,13.5896465 L116.688245,17.0237374 L114.798837,17.0237374 L112.550897,13.8618687 L112.524997,13.8618687 L110.537831,13.8618687 L110.537831,17.0237374 L108.948047,17.0237374 L108.948047,7.95227273 Z M112.889624,12.4492424 C113.465257,12.4492424 113.92358,12.3131313 114.262561,12.0388889 C114.60332,11.7666667 114.772683,11.395202 114.772683,10.9262626 L114.772683,10.9005051 C114.772683,10.4058081 114.607636,10.0300505 114.275257,9.77525253 C113.945417,9.51818182 113.478461,9.39065657 112.876928,9.39065657 L110.537831,9.39065657 L110.537831,12.4492424 L112.889624,12.4492424 Z M125.283893,17.1794444 C124.580285,17.1794444 123.937364,17.0562121 123.355382,16.81 C122.773147,16.5637879 122.273944,16.2289394 121.857009,15.8057071 C121.439821,15.3824747 121.114044,14.8877778 120.879423,14.3218687 C120.644803,13.7557071 120.527746,13.1534343 120.527746,12.5137879 L120.527746,12.4880303 C120.527746,11.8486364 120.644803,11.2461111 120.879423,10.680202 C121.114044,10.1142929 121.444138,9.61757576 121.869959,9.18979798 C122.295527,8.76227273 122.799555,8.42313131 123.381536,8.17262626 C123.963517,7.92186869 124.606439,7.79661616 125.310047,7.79661616 C126.013655,7.79661616 126.656577,7.91984848 127.238558,8.16606061 C127.820539,8.41227273 128.320251,8.74712121 128.737439,9.17035354 C129.154119,9.59383838 129.479897,10.0882828 129.714517,10.6541919 C129.949138,11.220101 130.066448,11.8228788 130.066448,12.4620202 L130.066448,12.4880303 C130.066448,13.1274242 129.949138,13.7299495 129.714517,14.2958586 C129.479897,14.8617677 129.150056,15.3584848 128.724235,15.7860101 C128.298414,16.2140404 127.794639,16.5531818 127.212658,16.8034343 C126.630677,17.0539394 125.987502,17.1794444 125.283893,17.1794444 Z M125.310047,15.714798 C125.759737,15.714798 126.172354,15.6307071 126.550185,15.4622727 C126.925984,15.2938384 127.247191,15.064798 127.516599,14.7751515 C127.783721,14.4860101 127.994473,14.1468687 128.144285,13.7579798 C128.296129,13.3693434 128.372304,12.954697 128.372304,12.5137879 L128.372304,12.4880303 C128.372304,12.0473737 128.296129,11.6304545 128.144285,11.2375253 C127.994473,10.8443434 127.78169,10.5031818 127.510251,10.2137879 C127.236527,9.92439394 126.910495,9.69308081 126.530633,9.52035354 C126.148232,9.34737374 125.733583,9.26126263 125.283893,9.26126263 C124.834204,9.26126263 124.421586,9.34535354 124.043755,9.5140404 C123.66821,9.68247475 123.346749,9.91126263 123.077596,10.2006566 C122.810219,10.4900505 122.599721,10.8291919 122.449909,11.2180808 C122.297558,11.6067172 122.221636,12.0213636 122.221636,12.4620202 L122.221636,12.4880303 C122.221636,12.9286869 122.297558,13.3453535 122.449909,13.7385354 C122.599721,14.1317172 122.812505,14.4728788 123.083944,14.7625253 C123.357668,15.0516667 123.683191,15.2829798 124.063307,15.4557071 C124.445708,15.6284343 124.860357,15.714798 125.310047,15.714798 Z M134.570201,7.95227273 L136.277549,7.95227273 L139.052878,12.2416667 L141.828461,7.95227273 L143.535555,7.95227273 L143.535555,17.0237374 L141.945771,17.0237374 L141.945771,10.5181818 L139.066082,14.794697 L139.013774,14.794697 L136.159984,10.5441919 L136.159984,17.0237374 L134.570201,17.0237374 L134.570201,7.95227273 Z M148.443545,7.95227273 L155.193461,7.95227273 L155.193461,9.39065657 L150.033329,9.39065657 L150.033329,11.7234848 L154.607163,11.7234848 L154.607163,13.1618687 L150.033329,13.1618687 L150.033329,15.5853535 L155.258718,15.5853535 L155.258718,17.0237374 L148.443545,17.0237374 L148.443545,7.95227273 Z" id="Emblem"></path>
                </g>
            </g>
        </g>
    </g>
</svg>